<svg width="750" height="750" viewBox="0 0 750 750" fill="none" xmlns="http://www.w3.org/2000/svg">
<mask id="mask0_139_51" style="mask-type:alpha" maskUnits="userSpaceOnUse" x="0" y="0" width="750" height="750">
<path d="M244.416 2.98343C255.551 -0.993779 267.72 -0.994524 278.854 2.98148C289.696 6.85304 299.211 16.3682 318.24 35.3975C337.244 54.4009 346.746 63.9029 357.57 67.7754C368.722 71.765 380.913 71.7643 392.065 67.7735C402.89 63.8998 412.389 54.4015 431.385 35.4053C450.381 16.4091 459.879 6.91093 470.704 3.03714C481.857 -0.953838 494.048 -0.95458 505.2 3.03519C516.024 6.90778 525.522 16.4046 544.516 35.3985L714.203 205.086C733.197 224.08 742.695 233.578 746.567 244.402C750.557 255.554 750.556 267.745 746.565 278.897C742.692 289.722 733.193 299.221 714.197 318.217C695.201 337.213 685.703 346.711 681.829 357.536C677.838 368.689 677.837 380.88 681.827 392.032C685.7 402.857 695.196 412.354 714.19 431.348C733.185 450.342 742.682 459.84 746.555 470.664C750.544 481.816 750.544 494.007 746.553 505.159C742.679 515.984 733.181 525.482 714.185 544.479L544.479 714.185C525.483 733.181 515.984 742.679 505.159 746.553C494.007 750.544 481.816 750.544 470.664 746.555C459.84 742.682 450.342 733.185 431.348 714.19C412.353 695.196 402.857 685.699 392.032 681.826C380.88 677.836 368.689 677.837 357.536 681.828C346.711 685.702 337.213 695.2 318.217 714.196C299.22 733.193 289.722 742.691 278.897 746.564C267.745 750.555 255.554 750.556 244.402 746.566C233.578 742.694 224.08 733.197 205.086 714.203L35.3994 544.516C16.4053 525.522 6.90774 516.025 3.0351 505.2C-0.954667 494.048 -0.953925 481.857 3.03706 470.704C6.66869 460.556 15.2438 451.574 31.954 434.838L38.8564 427.932C55.5666 411.196 64.1417 402.214 67.7734 392.065C71.7644 380.913 71.7651 368.722 67.7753 357.569C63.9028 346.745 54.4007 337.244 35.3974 318.24C16.3679 299.211 6.85286 289.695 2.98139 278.854C-0.994483 267.719 -0.993761 255.551 2.98334 244.416C6.85598 233.574 16.3673 224.062 35.3896 205.04L205.04 35.3897C224.062 16.3674 233.574 6.8561 244.416 2.98343ZM374.759 135.751C353.552 135.752 336.486 152.819 302.352 186.952L186.952 302.352C152.819 336.485 135.752 353.552 135.751 374.759C135.75 395.965 152.815 413.03 186.944 447.159L302.387 562.603C336.516 596.732 353.581 613.796 374.788 613.795C395.995 613.794 413.061 596.728 447.194 562.595L562.595 447.194C596.728 413.061 613.795 395.995 613.796 374.788C613.797 353.582 596.732 336.516 562.602 302.387L447.16 186.944C413.03 152.815 395.965 135.75 374.759 135.751ZM378.775 274.772C424.03 274.772 446.658 274.772 460.717 288.831C474.776 302.89 474.775 325.518 474.775 370.772V378.772C474.775 424.027 474.776 446.655 460.717 460.714C446.658 474.773 424.03 474.772 378.775 474.772H370.775C325.521 474.772 302.893 474.773 288.834 460.714C274.775 446.655 274.775 424.027 274.775 378.772V370.772C274.775 325.518 274.775 302.89 288.834 288.831C302.893 274.772 325.521 274.772 370.775 274.772H378.775Z" fill="white"/>
</mask>
<g mask="url(#mask0_139_51)">
<rect x="749.559" y="250.001" width="124.889" height="749.559" transform="rotate(90 749.559 250.001)" fill="#FF5500"/>
<rect x="749.559" y="374.668" width="124.889" height="749.559" transform="rotate(90 749.559 374.668)" fill="#E92424"/>
<rect x="749.559" y="499.335" width="124.889" height="749.559" transform="rotate(90 749.559 499.335)" fill="#AC23AB"/>
<rect x="749.559" y="624.669" width="124.889" height="749.559" transform="rotate(90 749.559 624.669)" fill="#02A7F7"/>
<rect x="749.559" y="124.667" width="124.889" height="749.559" transform="rotate(90 749.559 124.667)" fill="#FDCB27"/>
<rect x="749.559" width="124.889" height="749.559" transform="rotate(90 749.559 0)" fill="#64BA25"/>
</g>
</svg>
